<svg xmlns="http://www.w3.org/2000/svg" xmlns:xlink="http://www.w3.org/1999/xlink" width="144" height="145" viewBox="0 0 144 145"><defs><path id="9ky4a" d="M723.186 549.169v11.242h-7.875V549.17h-11.245v-7.878h11.245V530.05h7.875v11.242h11.244v7.878zM706.481 507.6a7.156 7.156 0 0 1-14.31 0 7.156 7.156 0 0 1 14.31 0zm-65.523 50.782a3.456 3.456 0 0 1-3.458-3.457v-66.855a3.457 3.457 0 0 1 3.458-3.457h76.075a3.457 3.457 0 0 1 3.458 3.457v36.997h-8.132v-32.446h-66.806v44.65h3.815l15.416-24.04 10.303 16.064 5.117 7.977h4.435l-7.334-11.436 4.78-7.454 12.115 18.889h4.884v16.876h11.245v4.236h-69.371zm38.036-108.879C639.233 449.504 607 481.74 607 521.5c0 39.761 32.233 71.995 71.994 71.995 39.76 0 71.997-32.235 71.997-71.995 0-39.762-32.237-71.995-71.997-71.995z"/></defs><g><g transform="translate(-607 -449)"><use fill="#ccc" xlink:href="#9ky4a"/></g></g></svg>
